<svg id="svg" xmlns="http://www.w3.org/2000/svg" xmlns:xlink="http://www.w3.org/1999/xlink" width="400" height="400" viewBox="0, 0, 400,400"><g id="svgg"><path id="path0" d="M6.250 200.000 L 6.250 395.313 200.781 395.313 L 395.313 395.313 395.313 200.000 L 395.313 4.688 200.781 4.688 L 6.250 4.688 6.250 200.000 M378.125 200.000 L 378.125 378.125 200.781 378.125 L 23.438 378.125 23.438 200.000 L 23.438 21.875 200.781 21.875 L 378.125 21.875 378.125 200.000 M284.672 70.353 C 265.942 81.772,275.025 110.846,297.343 110.914 C 311.800 110.959,318.750 104.110,318.750 89.821 C 318.750 70.379,301.134 60.316,284.672 70.353 M132.105 73.828 C 131.770 74.902,131.187 78.945,130.808 82.813 C 130.430 86.680,116.663 137.161,100.216 194.992 C 83.769 252.824,70.312 301.515,70.313 303.195 C 70.313 306.055,71.497 306.250,88.849 306.250 L 107.386 306.250 113.990 280.859 C 117.622 266.895,121.380 252.480,122.340 248.828 L 124.086 242.188 156.965 242.205 L 189.844 242.222 197.494 270.720 C 201.702 286.394,205.727 300.801,206.440 302.734 C 207.899 306.695,248.438 308.441,248.438 304.543 C 248.438 302.036,182.684 77.827,181.004 74.609 C 179.180 71.113,133.181 70.378,132.105 73.828 M179.688 204.076 C 179.688 204.412,169.492 204.688,157.031 204.688 C 142.412 204.688,134.375 204.112,134.375 203.065 C 134.375 202.173,137.834 188.286,142.062 172.206 C 146.289 156.125,151.294 136.129,153.184 127.770 L 156.619 112.571 168.153 158.018 C 174.497 183.013,179.688 203.740,179.688 204.076 M279.214 133.807 C 278.615 134.406,278.125 173.451,278.125 220.573 L 278.125 306.250 297.669 306.250 L 317.214 306.250 316.810 219.922 L 316.406 133.594 298.354 133.156 C 288.426 132.916,279.812 133.209,279.214 133.807 " stroke="none" fill="#000000" fill-rule="evenodd"></path></g></svg>